<?xml version="1.0" encoding="UTF-8"?>
<svg version="1.1" xmlns="http://www.w3.org/2000/svg" width="2048" height="2048">
<path d="M0 0 C126.72 0 253.44 0 384 0 C384 273.9 384 547.8 384 830 C658.23 830 932.46 830 1215 830 C1215 957.05 1215 1084.1 1215 1215 C940.77 1215 666.54 1215 384 1215 C384 1489.89 384 1764.78 384 2048 C257.28 2048 130.56 2048 0 2048 C0 1773.44 0 1498.88 0 1216 C-274.89 1216 -549.78 1216 -833 1216 C-833 1088.95 -833 961.9 -833 831 C-558.11 831 -283.22 831 0 831 C0 556.77 0 282.54 0 0 Z " fill="#FEFEFE" transform="translate(833,0)"/>
</svg>
