<?xml version="1.0" encoding="UTF-8"?>
<svg version="1.1" xmlns="http://www.w3.org/2000/svg" width="466" height="60">
<path d="M0 0 C24 0 24 0 28.44140625 4.1796875 C29.33176914 6.10287134 30.18200259 8.04493928 31 10 C32.43347107 12.18642238 33.88693534 14.3188327 35.40234375 16.4453125 C36.91489759 18.67130779 38.42646276 20.89797494 39.9375 23.125 C42.598125 27.04375 45.25875 30.9625 48 35 C48.33 23.45 48.66 11.9 49 0 C54.94 0 60.88 0 67 0 C67 19.14 67 38.28 67 58 C59.08 58 51.16 58 43 58 C36.74425745 51.1186832 36.74425745 51.1186832 35.3125 47.734375 C32.61521259 41.93520706 28.97503826 36.82928358 25.375 31.5625 C23.27125 28.406875 21.1675 25.25125 19 22 C18.67 33.88 18.34 45.76 18 58 C12.06 58 6.12 58 0 58 C0 38.86 0 19.72 0 0 Z " fill="#000000" transform="translate(141,1)"/>
<path d="M0 0 C3.74070061 2.97377873 6.03336499 6.08602131 7.7421875 10.609375 C7.7421875 11.599375 7.7421875 12.589375 7.7421875 13.609375 C4.63819772 13.69647789 1.53452202 13.74979809 -1.5703125 13.796875 C-2.45138672 13.82201172 -3.33246094 13.84714844 -4.24023438 13.87304688 C-5.51157227 13.88754883 -5.51157227 13.88754883 -6.80859375 13.90234375 C-7.58887939 13.9180542 -8.36916504 13.93376465 -9.1730957 13.94995117 C-11.79084461 13.52229457 -12.50364438 12.53127234 -14.2578125 10.609375 C-17.308876 9.59235383 -19.49980311 9.44355417 -22.6953125 9.421875 C-23.64277344 9.40769531 -24.59023438 9.39351562 -25.56640625 9.37890625 C-28.30282894 9.61322982 -29.92209373 10.21236117 -32.2578125 11.609375 C-32.2578125 12.599375 -32.2578125 13.589375 -32.2578125 14.609375 C-26.47505529 15.7834121 -20.72844957 16.68941622 -14.85791016 17.26123047 C-6.37871932 18.11156846 1.0224624 18.8896499 7.3046875 25.171875 C9.63585552 30.74640723 9.83497852 36.08950118 8.03515625 41.88671875 C4.68743061 48.41917216 -1.65699199 51.0726235 -8.2578125 53.609375 C-19.90958588 56.67170005 -32.94259686 55.04032036 -43.515625 49.40625 C-47.10835798 47.03113782 -49.52919405 44.5467837 -51.2578125 40.609375 C-51.6179135 38.6140208 -51.95447743 36.61414405 -52.2578125 34.609375 C-49.17479834 34.49293344 -46.09235127 34.42205068 -43.0078125 34.359375 C-42.13511719 34.32585938 -41.26242187 34.29234375 -40.36328125 34.2578125 C-33.81766697 34.15787946 -33.81766697 34.15787946 -30.8359375 36.5625 C-30.31515625 37.23796875 -29.794375 37.9134375 -29.2578125 38.609375 C-26.06624802 39.67322983 -23.67283774 39.77615482 -20.3203125 39.796875 C-18.75990234 39.81814453 -18.75990234 39.81814453 -17.16796875 39.83984375 C-14.30734637 39.61329782 -12.68111099 39.08671119 -10.2578125 37.609375 C-10.7528125 35.629375 -10.7528125 35.629375 -11.2578125 33.609375 C-12.65580078 33.42761719 -12.65580078 33.42761719 -14.08203125 33.2421875 C-16.75123079 32.89133215 -19.41877638 32.53349977 -22.0859375 32.16796875 C-24.67868309 31.81370651 -27.26558493 31.49703673 -29.8671875 31.20703125 C-38.38282179 30.15756928 -43.87452804 28.24640579 -49.7578125 21.921875 C-52.05788821 16.84254115 -52.36308479 11.8817261 -50.5625 6.55078125 C-47.90148904 1.35174723 -44.27930898 -1.20251113 -38.953125 -3.296875 C-26.37712944 -7.32716438 -11.4723863 -7.06603724 0 0 Z " fill="#000000" transform="translate(393.2578125,5.390625)"/>
<path d="M0 0 C4.10921363 3.43158432 4.80701646 6.33976982 5.84765625 11.54296875 C-0.42234375 11.54296875 -6.69234375 11.54296875 -13.15234375 11.54296875 C-13.64734375 10.05796875 -13.64734375 10.05796875 -14.15234375 8.54296875 C-17.91817409 7.66751742 -21.41414594 7.40828655 -25.27734375 7.41796875 C-26.31117187 7.41539063 -27.345 7.4128125 -28.41015625 7.41015625 C-31.2446868 7.42376994 -31.2446868 7.42376994 -34.15234375 8.54296875 C-34.15234375 9.86296875 -34.15234375 11.18296875 -34.15234375 12.54296875 C-27.27710748 14.13086116 -20.41493079 15.04738433 -13.39477539 15.66943359 C-5.69586054 16.45395634 0.73843481 18.34997307 5.84765625 24.54296875 C7.55739305 29.67217915 7.4938322 34.60444091 5.78515625 39.73046875 C0.54182236 47.34175987 -6.1409494 50.73660771 -15.15234375 52.54296875 C-27.4084939 53.6134274 -39.28094855 52.61334727 -49.15234375 44.54296875 C-52.46397477 40.55202881 -53.42830252 37.59719829 -54.15234375 32.54296875 C-51.04849164 32.42683671 -47.94519713 32.35574846 -44.83984375 32.29296875 C-43.95876953 32.25945313 -43.07769531 32.2259375 -42.16992188 32.19140625 C-39.76810618 32.15487673 -37.52427588 32.15867317 -35.15234375 32.54296875 C-33.296875 34.49609375 -33.296875 34.49609375 -32.15234375 36.54296875 C-28.94096931 37.85105015 -25.58750784 37.70899897 -22.15234375 37.73046875 C-21.12109375 37.74464844 -20.08984375 37.75882813 -19.02734375 37.7734375 C-16.18689172 37.54573822 -14.56126427 37.00800936 -12.15234375 35.54296875 C-12.64734375 33.56296875 -12.64734375 33.56296875 -13.15234375 31.54296875 C-14.55033203 31.36121094 -14.55033203 31.36121094 -15.9765625 31.17578125 C-19.34919878 30.73246202 -22.72032374 30.27999015 -26.09082031 29.82080078 C-28.00354634 29.56302221 -29.91774069 29.31620333 -31.83203125 29.0703125 C-40.37350564 27.89659951 -46.40756016 26.4377503 -51.94921875 19.49609375 C-54.37891369 15.55178378 -54.61907472 11.92065483 -53.73828125 7.43359375 C-52.13748418 2.30332843 -49.69677536 -0.45599151 -45.15234375 -3.45703125 C-30.52905964 -10.30990361 -13.16557978 -9.40398556 0 0 Z " fill="#000000" transform="translate(54.15234375,7.45703125)"/>
<path d="M0 0 C18.15 0 36.3 0 55 0 C55 4.62 55 9.24 55 14 C43.12 14.33 31.24 14.66 19 15 C18.67 17.64 18.34 20.28 18 23 C29.22 23 40.44 23 52 23 C52 26.96 52 30.92 52 35 C40.78 35 29.56 35 18 35 C18 37.97 18 40.94 18 44 C30.21 44 42.42 44 55 44 C55 48.62 55 53.24 55 58 C36.85 58 18.7 58 0 58 C0 38.86 0 19.72 0 0 Z " fill="#000000" transform="translate(280,1)"/>
<path d="M0 0 C8.25 0 16.5 0 25 0 C27.43611683 5.40328136 29.87167202 10.8068095 32.3059082 16.2109375 C33.13079295 18.04180662 33.95597847 19.87254027 34.78149414 21.703125 C37.52991525 27.79810384 40.27038866 33.89657298 43 40 C43.36180359 40.80824219 43.72360718 41.61648437 44.09637451 42.44921875 C45.09864926 44.69336831 46.09535973 46.93988907 47.08984375 49.1875 C47.38734024 49.85289795 47.68483673 50.5182959 47.99134827 51.20385742 C50 55.76908863 50 55.76908863 50 58 C43.73 58 37.46 58 31 58 C27 50 27 50 27 48 C17.43 48 7.86 48 -2 48 C-2.99 50.97 -3.98 53.94 -5 57 C-6 58 -6 58 -7.85766602 58.11352539 C-9.04380493 58.10567017 -9.04380493 58.10567017 -10.25390625 58.09765625 C-11.10791016 58.09443359 -11.96191406 58.09121094 -12.84179688 58.08789062 C-13.73962891 58.07951172 -14.63746094 58.07113281 -15.5625 58.0625 C-16.46419922 58.05798828 -17.36589844 58.05347656 -18.29492188 58.04882812 C-20.53001634 58.03700223 -22.76496493 58.01968245 -25 58 C-23.03014809 51.69084322 -20.65589536 45.69610345 -17.91015625 39.6875 C-17.52435898 38.83373779 -17.13856171 37.97997559 -16.74107361 37.1003418 C-15.51902112 34.39833047 -14.29093153 31.69911624 -13.0625 29 C-12.24242515 27.19029144 -11.42276028 25.38039704 -10.60351562 23.5703125 C-9.44399495 21.00869753 -8.28393528 18.44734559 -7.12062073 15.88745117 C-6.59503822 14.73079956 -6.59503822 14.73079956 -6.05883789 13.55078125 C-5.75700089 12.88731689 -5.45516388 12.22385254 -5.1441803 11.5402832 C-3.41455113 7.70019967 -1.71050646 3.84863953 0 0 Z M12 14 C10.80077976 16.76628111 9.61539501 19.537155 8.4375 22.3125 C8.09525391 23.09818359 7.75300781 23.88386719 7.40039062 24.69335938 C7.08134766 25.45068359 6.76230469 26.20800781 6.43359375 26.98828125 C6.13509521 27.68477783 5.83659668 28.38127441 5.52905273 29.09887695 C4.75469512 31.19573589 4.75469512 31.19573589 6 34 C10.62 33.67 15.24 33.34 20 33 C17.91923185 26.54961873 15.57778144 20.26780359 13 14 C12.67 14 12.34 14 12 14 Z " fill="#000000" transform="translate(86,1)"/>
<path d="M0 0 C20.13 0 40.26 0 61 0 C61 5.28 61 10.56 61 16 C54.07 16 47.14 16 40 16 C40 29.86 40 43.72 40 58 C33.73 58 27.46 58 21 58 C21 44.14 21 30.28 21 16 C14.07 16 7.14 16 0 16 C0 10.72 0 5.44 0 0 Z " fill="#000000" transform="translate(214,1)"/>
<path d="M0 0 C20.46 0 40.92 0 62 0 C62 4.95 62 9.9 62 15 C61.67 15.33 61.34 15.66 61 16 C54.07 16 47.14 16 40 16 C40 29.86 40 43.72 40 58 C34.06 58 28.12 58 22 58 C22 44.14 22 30.28 22 16 C14.74 16 7.48 16 0 16 C0 10.72 0 5.44 0 0 Z " fill="#000000" transform="translate(404,1)"/>
</svg>
