<?xml version="1.0" encoding="UTF-8"?>
<svg version="1.1" xmlns="http://www.w3.org/2000/svg" width="768" height="768">
<path d="M0 0 C4.00458379 1.60754076 6.71759897 4.41347128 9.6875 7.4375 C10.21786865 7.97318604 10.7482373 8.50887207 11.29467773 9.06079102 C15.37476318 13.23806529 19.12035475 17.6161144 22.74609375 22.1953125 C24.69443902 24.61976987 26.7157537 26.95115608 28.77880859 29.27758789 C40.03723878 42.11432176 49.29342086 56.68140167 57.8125 71.4375 C58.55874634 72.72333984 58.55874634 72.72333984 59.32006836 74.03515625 C61.91139739 78.63304335 63.80192992 82.85453139 65 88 C66.15113281 87.43152344 67.30226563 86.86304688 68.48828125 86.27734375 C96.8081581 72.46606863 129.62203621 60.57036823 161.5625 60.9375 C162.59503906 60.94652344 163.62757813 60.95554687 164.69140625 60.96484375 C165.83416016 60.98224609 165.83416016 60.98224609 167 61 C172.51099013 86.6822841 173.32462921 111.84986825 173 138 C173.86443726 138.17221069 173.86443726 138.17221069 174.74633789 138.34790039 C203.12182017 144.07447165 230.20895737 152.70697007 256 166 C249.31828172 192.33340226 233.66799152 216.5876707 215 236 C214.50838379 236.52271484 214.01676758 237.04542969 213.51025391 237.58398438 C183.05266241 269.87326542 138.66721528 291.41309125 94.00314713 293.07426834 C88.02271549 293.2327153 82.04064036 293.28886433 76.05859375 293.3515625 C74.05062672 293.37533523 72.04266167 293.39927542 70.03469849 293.42337036 C63.50237727 293.49916315 56.96996356 293.56288918 50.4375 293.625 C49.32474072 293.63590164 48.21198143 293.64680328 47.06550217 293.65803528 C14.18050621 293.97854755 -18.69902706 294.08821152 -51.58442307 293.77550507 C-54.41085101 293.75023823 -57.23727364 293.73006327 -60.06375122 293.71124268 C-98.35686412 293.44127939 -98.35686412 293.44127939 -116 290 C-117.15862549 289.77618652 -118.31725098 289.55237305 -119.51098633 289.32177734 C-122.26538909 288.72881097 -124.97109512 288.0586504 -127.6875 287.3125 C-128.63334961 287.05758789 -129.57919922 286.80267578 -130.55371094 286.54003906 C-152.33753428 280.423615 -173.11868533 269.81533734 -191 256 C-191.88171875 255.34128906 -192.7634375 254.68257812 -193.671875 254.00390625 C-220.99890436 232.76335161 -244.334132 201.62916576 -254 168 C-253 165 -253 165 -249.51171875 163.08984375 C-247.91038108 162.35748612 -246.30156878 161.6413551 -244.6875 160.9375 C-243.80811768 160.54973389 -242.92873535 160.16196777 -242.02270508 159.76245117 C-219.18729846 149.9089919 -195.52995652 142.20530321 -171 138 C-171.01047363 137.19183838 -171.02094727 136.38367676 -171.03173828 135.55102539 C-171.31421887 110.26186123 -170.37599372 85.81830109 -165 61 C-156.72760341 60.78441466 -148.85495608 61.31930972 -140.6875 62.625 C-139.56375977 62.80321289 -138.44001953 62.98142578 -137.28222656 63.16503906 C-111.10581771 67.51428214 -86.69270719 76.18100519 -63 88 C-62.75894531 87.18917969 -62.51789063 86.37835938 -62.26953125 85.54296875 C-50.71460048 53.2958235 -24.07994241 23.73918851 0 0 Z " fill="#FD5D99" transform="translate(383,203)"/>
<path d="M0 0 C1.03253906 0.00902344 2.06507813 0.01804687 3.12890625 0.02734375 C4.27166016 0.04474609 4.27166016 0.04474609 5.4375 0.0625 C10.94849013 25.7447841 11.76212921 50.91236825 11.4375 77.0625 C12.30193726 77.23471069 12.30193726 77.23471069 13.18383789 77.41040039 C41.55932017 83.13697165 68.64645737 91.76947007 94.4375 105.0625 C87.75578172 131.39590226 72.10549152 155.6501707 53.4375 175.0625 C52.70007568 175.84657227 52.70007568 175.84657227 51.94775391 176.64648438 C21.21099194 209.23172492 -23.03338988 230.21162982 -67.98389053 232.1678791 C-70.46232491 232.22272581 -72.93947529 232.25108337 -75.41845703 232.26782227 C-76.3465065 232.27772186 -77.27455597 232.28762146 -78.23072815 232.29782104 C-81.26056475 232.32909688 -84.29041697 232.3540575 -87.3203125 232.37890625 C-89.43594746 232.39950517 -91.55157857 232.42050236 -93.66720581 232.44187927 C-99.20728421 232.49679677 -104.74739786 232.54633845 -110.28753662 232.59472656 C-115.95213927 232.64516446 -121.61669138 232.70073362 -127.28125 232.75585938 C-138.37495672 232.86306948 -149.46870752 232.96459531 -160.5625 233.0625 C-159.09525463 229.99012416 -157.64614158 227.92631423 -155.18359375 225.55859375 C-154.51432861 224.90640869 -153.84506348 224.25422363 -153.15551758 223.58227539 C-152.44419678 222.89512451 -151.73287598 222.20797363 -151 221.5 C-144.72610867 215.323217 -138.92341608 209.05941978 -133.5625 202.0625 C-132.53704584 200.75344581 -131.51095462 199.44489053 -130.484375 198.13671875 C-111.98872237 174.42490086 -95.60127878 148.31966742 -87.5625 119.0625 C-87.36640137 118.35528809 -87.17030273 117.64807617 -86.96826172 116.91943359 C-79.35680504 88.22243705 -83.48965259 60.29955857 -93.86987305 33.03515625 C-94.56237697 31.06285039 -95.0882376 29.09724785 -95.5625 27.0625 C-66.65272295 12.09475735 -33.01362887 -0.379467 0 0 Z " fill="#E2407A" transform="translate(544.5625,263.9375)"/>
<path d="M0 0 C4.00458379 1.60754076 6.71759897 4.41347128 9.6875 7.4375 C10.21786865 7.97318604 10.7482373 8.50887207 11.29467773 9.06079102 C15.37476318 13.23806529 19.12035475 17.6161144 22.74609375 22.1953125 C24.69443902 24.61976987 26.7157537 26.95115608 28.77880859 29.27758789 C49.23572868 52.60233518 65.29220036 80.79077074 74.375 110.4375 C74.61395996 111.21746338 74.85291992 111.99742676 75.09912109 112.80102539 C81.4056993 134.49958175 81.02705866 158.29415938 75 180 C74.80164551 180.7326709 74.60329102 181.4653418 74.39892578 182.22021484 C66.46065066 210.64517612 50.32395009 236.18488567 32 259 C31.19820313 260.01449219 30.39640625 261.02898437 29.5703125 262.07421875 C21.05911028 272.6905048 11.70772844 282.48179337 2 292 C-1.07219952 290.62833912 -3.19544655 289.06111523 -5.57421875 286.69140625 C-6.23703857 286.03277588 -6.8998584 285.37414551 -7.58276367 284.69555664 C-8.27732666 283.99164795 -8.97188965 283.28773926 -9.6875 282.5625 C-10.40719971 281.83603271 -11.12689941 281.10956543 -11.8684082 280.36108398 C-17.28657252 274.83772447 -22.29251294 269.14408225 -27 263 C-28.02545416 261.69094581 -29.05154538 260.38239053 -30.078125 259.07421875 C-59.68319951 221.11988703 -81.52018435 178.45617556 -76.71142578 129.03417969 C-75.92027899 123.2338525 -74.61921425 117.62162172 -73 112 C-72.76925781 111.19868652 -72.53851563 110.39737305 -72.30078125 109.57177734 C-61.90423662 74.84099235 -40.13122121 42.97918356 -15.50390625 16.6875 C-13.34650202 14.37190856 -11.25315258 12.02206497 -9.1875 9.625 C-6.26891203 6.25522935 -3.19062709 3.11280691 0 0 Z " fill="#FD5D99" transform="translate(383,203)"/>
<path d="M0 0 C0 96.36 0 192.72 0 292 C-10.39325925 283.09149207 -19.60123195 273.81205043 -28 263 C-28.49113281 262.37464355 -28.98226562 261.74928711 -29.48828125 261.10498047 C-59.74498037 222.53873168 -82.62170306 179.49953369 -77.71142578 129.03417969 C-76.92027899 123.2338525 -75.61921425 117.62162172 -74 112 C-73.76925781 111.19868652 -73.53851563 110.39737305 -73.30078125 109.57177734 C-62.90423662 74.84099235 -41.13122121 42.97918356 -16.50390625 16.6875 C-14.34650202 14.37190856 -12.25315258 12.02206497 -10.1875 9.625 C-1.83106695 0 -1.83106695 0 0 0 Z " fill="#FF78AF" transform="translate(384,203)"/>
<path d="M0 0 C0.06993164 0.54712646 0.13986328 1.09425293 0.21191406 1.65795898 C4.46548765 34.40432089 12.9731338 66.42157068 35 92 C35.75023437 92.88816406 36.50046875 93.77632813 37.2734375 94.69140625 C67.33974795 129.24128931 113.70368246 147.11268385 158 154 C158 154.33 158 154.66 158 155 C147.68852803 155.07020635 137.37711498 155.12316351 127.06545067 155.15543652 C122.27482908 155.17094343 117.48437366 155.1918995 112.69384766 155.22631836 C71.22821442 155.51610843 71.22821442 155.51610843 54 152 C52.845 151.77546143 51.69 151.55092285 50.5 151.31958008 C47.7407638 150.72975308 45.03277679 150.05971395 42.3125 149.3125 C41.36665039 149.05758789 40.42080078 148.80267578 39.44628906 148.54003906 C17.66246572 142.423615 -3.11868533 131.81533734 -21 118 C-21.88171875 117.34128906 -22.7634375 116.68257813 -23.671875 116.00390625 C-50.99890436 94.76335161 -74.334132 63.62916576 -84 30 C-83 27 -83 27 -79.51171875 25.08984375 C-77.91038108 24.35748612 -76.30156878 23.6413551 -74.6875 22.9375 C-73.80811768 22.54973389 -72.92873535 22.16196777 -72.02270508 21.76245117 C-21.58819192 0 -21.58819192 0 0 0 Z " fill="#E2407A" transform="translate(213,341)"/>
<path d="M0 0 C29.32864306 5.08318557 57.52177757 14.38063039 84 28 C77.31828172 54.33340226 61.66799152 78.5876707 43 98 C42.50838379 98.52271484 42.01676758 99.04542969 41.51025391 99.58398438 C11.23413535 131.68087888 -31.83530383 152.2101405 -76 155 C-82.30248036 155.1762087 -88.60986428 155.11671453 -94.9140625 155.09765625 C-96.73822999 155.09578814 -98.56239799 155.09436609 -100.38656616 155.09336853 C-105.15730201 155.08957431 -109.92800679 155.07977089 -114.69873047 155.06866455 C-119.57909729 155.05838345 -124.45946919 155.05385664 -129.33984375 155.04882812 C-138.89324272 155.03814547 -148.44661876 155.02110679 -158 155 C-158 154.67 -158 154.34 -158 154 C-156.75089844 153.79246094 -155.50179688 153.58492187 -154.21484375 153.37109375 C-117.59021522 147.00190255 -80.42875646 133.59234988 -52 109 C-50.75863281 107.94039062 -50.75863281 107.94039062 -49.4921875 106.859375 C-18.30271123 79.58050584 -3.88470386 40.47049689 0 0 Z " fill="#B51359" transform="translate(555,341)"/>
<path d="M0 0 C24 0 24 0 28.44140625 4.1796875 C29.33176914 6.10287134 30.18200259 8.04493928 31 10 C32.43347107 12.18642238 33.88693534 14.3188327 35.40234375 16.4453125 C36.91489759 18.67130779 38.42646276 20.89797494 39.9375 23.125 C42.598125 27.04375 45.25875 30.9625 48 35 C48.33 23.45 48.66 11.9 49 0 C54.94 0 60.88 0 67 0 C67 19.14 67 38.28 67 58 C59.08 58 51.16 58 43 58 C36.74425745 51.1186832 36.74425745 51.1186832 35.3125 47.734375 C32.61521259 41.93520706 28.97503826 36.82928358 25.375 31.5625 C23.27125 28.406875 21.1675 25.25125 19 22 C18.67 33.88 18.34 45.76 18 58 C12.06 58 6.12 58 0 58 C0 38.86 0 19.72 0 0 Z " fill="#000000" transform="translate(292,506)"/>
<path d="M0 0 C4.10921363 3.43158432 4.80701646 6.33976982 5.84765625 11.54296875 C-0.42234375 11.54296875 -6.69234375 11.54296875 -13.15234375 11.54296875 C-13.64734375 10.05796875 -13.64734375 10.05796875 -14.15234375 8.54296875 C-17.71158389 7.7305335 -21.0036207 7.40771953 -24.65234375 7.41796875 C-25.57015625 7.41539062 -26.48796875 7.4128125 -27.43359375 7.41015625 C-30.10238829 7.5405284 -32.55099528 7.94918269 -35.15234375 8.54296875 C-34.80447667 10.5183362 -34.80447667 10.5183362 -34.15234375 12.54296875 C-31.58571681 13.82628222 -29.41266014 13.89177632 -26.55078125 14.15625 C-24.85501953 14.32737305 -24.85501953 14.32737305 -23.125 14.50195312 C-20.75089805 14.73523893 -18.37587885 14.95939388 -16 15.17382812 C-7.99387262 16.00345514 -1.99836425 17.28864371 4.28515625 22.60546875 C7.60748881 26.72516112 7.30633667 31.50613852 6.84765625 36.54296875 C4.84004341 42.56580726 0.49945434 46.53836469 -4.98828125 49.55078125 C-14.99194262 54.05024466 -28.65904384 54.25723813 -38.9765625 50.51171875 C-46.00827888 47.38090068 -51.11093678 43.89790965 -54.15234375 36.54296875 C-54.15234375 35.22296875 -54.15234375 33.90296875 -54.15234375 32.54296875 C-51.06932959 32.42652719 -47.98688252 32.35564443 -44.90234375 32.29296875 C-44.02964844 32.25945313 -43.15695313 32.2259375 -42.2578125 32.19140625 C-35.71219822 32.09147321 -35.71219822 32.09147321 -32.73046875 34.49609375 C-32.2096875 35.1715625 -31.68890625 35.84703125 -31.15234375 36.54296875 C-28.08277277 37.56615908 -25.92794052 37.67668814 -22.71484375 37.66796875 C-21.29365234 37.67183594 -21.29365234 37.67183594 -19.84375 37.67578125 C-17.45093916 37.5577035 -15.43898222 37.2240951 -13.15234375 36.54296875 C-12.82234375 35.22296875 -12.49234375 33.90296875 -12.15234375 32.54296875 C-17.63018997 29.8153635 -23.50031234 29.84883696 -29.49609375 29.41992188 C-36.59651154 28.82284129 -43.30913551 27.76808824 -49.02734375 23.29296875 C-52.37754268 18.95741719 -54.52493911 15.04119968 -54.08984375 9.48046875 C-53.20025551 4.68039886 -51.25506607 1.22607908 -47.390625 -1.8671875 C-33.38064971 -11.30809423 -13.42190135 -9.58707239 0 0 Z " fill="#000000" transform="translate(205.15234375,512.45703125)"/>
<path d="M0 0 C3.74070061 2.97377873 6.03336499 6.08602131 7.7421875 10.609375 C7.7421875 11.599375 7.7421875 12.589375 7.7421875 13.609375 C4.63819772 13.69647789 1.53452202 13.74979809 -1.5703125 13.796875 C-2.45138672 13.82201172 -3.33246094 13.84714844 -4.24023438 13.87304688 C-5.51157227 13.88754883 -5.51157227 13.88754883 -6.80859375 13.90234375 C-7.58887939 13.9180542 -8.36916504 13.93376465 -9.1730957 13.94995117 C-11.79084461 13.52229457 -12.50364438 12.53127234 -14.2578125 10.609375 C-17.308876 9.59235383 -19.49980311 9.44355417 -22.6953125 9.421875 C-23.64277344 9.40769531 -24.59023438 9.39351562 -25.56640625 9.37890625 C-28.30282894 9.61322982 -29.92209373 10.21236117 -32.2578125 11.609375 C-32.2578125 12.929375 -32.2578125 14.249375 -32.2578125 15.609375 C-31.45674072 15.67930664 -30.65566895 15.74923828 -29.83032227 15.82128906 C-26.15865592 16.15110009 -22.48969005 16.50503989 -18.8203125 16.859375 C-16.93022461 17.02373047 -16.93022461 17.02373047 -15.00195312 17.19140625 C-6.57232829 18.02776589 1.11801541 18.98520291 7.3046875 25.171875 C9.57991678 30.61264066 9.72833894 35.95644783 8.1875 41.6640625 C5.03242804 48.42493098 -2.30961503 51.51004713 -8.9453125 53.984375 C-21.21311757 56.35878888 -34.78624834 55.17713499 -45.3828125 48.171875 C-50.12044887 43.94919911 -51.32466506 40.77663125 -52.2578125 34.609375 C-49.17479834 34.49293344 -46.09235127 34.42205068 -43.0078125 34.359375 C-42.13511719 34.32585938 -41.26242187 34.29234375 -40.36328125 34.2578125 C-33.81766697 34.15787946 -33.81766697 34.15787946 -30.8359375 36.5625 C-30.31515625 37.23796875 -29.794375 37.9134375 -29.2578125 38.609375 C-26.06624802 39.67322983 -23.67283774 39.77615482 -20.3203125 39.796875 C-18.75990234 39.81814453 -18.75990234 39.81814453 -17.16796875 39.83984375 C-14.30734637 39.61329782 -12.68111099 39.08671119 -10.2578125 37.609375 C-10.7528125 35.629375 -10.7528125 35.629375 -11.2578125 33.609375 C-12.65580078 33.42761719 -12.65580078 33.42761719 -14.08203125 33.2421875 C-16.75123079 32.89133215 -19.41877638 32.53349977 -22.0859375 32.16796875 C-24.67868309 31.81370651 -27.26558493 31.49703673 -29.8671875 31.20703125 C-38.38282179 30.15756928 -43.87452804 28.24640579 -49.7578125 21.921875 C-52.31474383 16.27531831 -52.11233208 11.03800959 -50.0703125 5.234375 C-45.81096556 -0.93433436 -39.9944802 -3.23846259 -32.9453125 -4.953125 C-21.84787171 -6.75968513 -9.75617175 -6.0089916 0 0 Z " fill="#000000" transform="translate(544.2578125,510.390625)"/>
<path d="M0 0 C18.15 0 36.3 0 55 0 C55 4.62 55 9.24 55 14 C51.43072615 15.18975795 48.20053028 15.12478155 44.48828125 15.09765625 C43.76005661 15.0962413 43.03183197 15.09482635 42.28153992 15.09336853 C39.95848461 15.08777659 37.63552612 15.07522562 35.3125 15.0625 C33.73632952 15.05748396 32.16015752 15.05292123 30.58398438 15.04882812 C26.72261902 15.0378098 22.86132592 15.02055074 19 15 C19 17.31 19 19.62 19 22 C35.335 22.495 35.335 22.495 52 23 C52 26.96 52 30.92 52 35 C35.665 35.495 35.665 35.495 19 36 C19 38.31 19 40.62 19 43 C20.05501709 42.99476318 21.11003418 42.98952637 22.19702148 42.98413086 C26.0975663 42.96608099 29.9981074 42.95456805 33.89868164 42.94506836 C35.58944316 42.9400281 37.28020029 42.93319595 38.97094727 42.92456055 C41.39600707 42.91248143 43.82100944 42.90676877 46.24609375 42.90234375 C47.38672523 42.89460182 47.38672523 42.89460182 48.55039978 42.88670349 C50.3673257 42.88650762 52.18413127 42.93802723 54 43 C57.54338194 46.54338194 55 52.98890121 55 58 C36.85 58 18.7 58 0 58 C0 38.86 0 19.72 0 0 Z " fill="#000000" transform="translate(431,506)"/>
<path d="M0 0 C8.25 0 16.5 0 25 0 C31.8379231 15.0833603 38.66968144 30.16960876 45.375 45.3125 C45.84462158 46.36622803 46.31424316 47.41995605 46.7980957 48.50561523 C47.43557739 49.95109741 47.43557739 49.95109741 48.0859375 51.42578125 C48.6435376 52.68515503 48.6435376 52.68515503 49.21240234 53.9699707 C50 56 50 56 50 58 C43.73 58 37.46 58 31 58 C27 50 27 50 27 48 C17.43 48 7.86 48 -2 48 C-2.99 50.97 -3.98 53.94 -5 57 C-6 58 -6 58 -7.85766602 58.11352539 C-9.04380493 58.10567017 -9.04380493 58.10567017 -10.25390625 58.09765625 C-11.10791016 58.09443359 -11.96191406 58.09121094 -12.84179688 58.08789062 C-13.73962891 58.07951172 -14.63746094 58.07113281 -15.5625 58.0625 C-16.46419922 58.05798828 -17.36589844 58.05347656 -18.29492188 58.04882812 C-20.53001314 58.03700225 -22.76497437 58.0205222 -25 58 C-22.57441842 50.10413829 -19.29384876 42.69642371 -15.875 35.1875 C-15.29490743 33.90489426 -14.71524008 32.62209612 -14.13598633 31.33911133 C-12.97744327 28.77455824 -11.8166565 26.21104142 -10.65380859 23.6484375 C-8.74885642 19.44901246 -6.85752329 15.24350434 -4.96801758 11.03710938 C-3.31431764 7.35703584 -1.65680796 3.67867531 0 0 Z M12 14 C10.82905995 16.7899439 9.66309073 19.58178597 8.5 22.375 C8.16613281 23.1690625 7.83226562 23.963125 7.48828125 24.78125 C7.01455078 25.92207031 7.01455078 25.92207031 6.53125 27.0859375 C6.23798828 27.7876709 5.94472656 28.4894043 5.64257812 29.21240234 C4.88724219 30.99708561 4.88724219 30.99708561 5 33 C9.95 33 14.9 33 20 33 C17.91923185 26.54961873 15.57778144 20.26780359 13 14 C12.67 14 12.34 14 12 14 Z " fill="#000000" transform="translate(237,506)"/>
<path d="M0 0 C20.13 0 40.26 0 61 0 C61 5.28 61 10.56 61 16 C54.07 16 47.14 16 40 16 C40 29.86 40 43.72 40 58 C33.73 58 27.46 58 21 58 C21 44.14 21 30.28 21 16 C14.07 16 7.14 16 0 16 C0 10.72 0 5.44 0 0 Z " fill="#000000" transform="translate(365,506)"/>
<path d="M0 0 C20.46 0 40.92 0 62 0 C62 5.28 62 10.56 62 16 C54.74 16 47.48 16 40 16 C40 29.86 40 43.72 40 58 C34.06 58 28.12 58 22 58 C22 44.14 22 30.28 22 16 C14.74 16 7.48 16 0 16 C0 10.72 0 5.44 0 0 Z " fill="#000000" transform="translate(555,506)"/>
</svg>
